<?xml version="1.0" encoding="utf-8"?>
<svg viewBox="0 0 500 500" xmlns="http://www.w3.org/2000/svg">
  <ellipse style="fill: rgb(229, 112, 103); fill-rule: nonzero; paint-order: fill; stroke: rgb(229, 112, 103);" cx="248.781" cy="249.336" rx="250.198" ry="250.635"/>
  <path d="M 262.836 236.861 Q 263.595 237.008 263.975 237.376 Q 264.355 237.743 264.355 238.233 Q 264.355 239.042 263.901 239.409 Q 263.448 239.777 262.468 239.703 Q 260.263 239.532 259.026 239.47 Q 257.789 239.409 255.78 239.385 Q 254.873 243.893 254.114 248.45 Q 253.844 250.116 253.55 252.308 Q 253.256 254.501 253.158 255.849 Q 253.109 256.559 252.57 256.939 Q 252.031 257.319 251.272 257.319 Q 250.463 257.319 250.022 256.927 Q 249.581 256.535 249.581 255.898 Q 249.581 255.31 249.765 253.95 Q 249.949 252.59 250.194 251.096 Q 250.463 249.601 250.61 248.499 Q 250.88 246.637 251.223 244.799 Q 251.566 242.962 251.909 241.32 Q 251.982 240.953 252.08 240.475 Q 252.178 239.997 252.301 239.409 Q 249.9 239.483 248.528 239.801 Q 247.156 240.12 246.58 240.695 Q 246.004 241.271 246.004 242.178 Q 246.004 243.011 246.494 243.77 Q 246.592 243.942 246.592 244.138 Q 246.592 244.603 246.041 245.007 Q 245.49 245.412 244.902 245.412 Q 244.485 245.412 244.216 245.167 Q 243.726 244.75 243.407 243.978 Q 243.089 243.207 243.089 242.227 Q 243.089 240.144 244.448 238.882 Q 245.808 237.621 248.589 237.033 Q 251.37 236.445 255.731 236.445 Q 258.426 236.445 260.03 236.543 Q 261.635 236.641 262.836 236.861 Z" transform="matrix(21.1583, 0, 0, 16.470993, -5124.866699, -3778.057617)" style="fill: rgb(51, 51, 51); white-space: pre;"/>
</svg>